<?xml version="1.0" standalone="no"?>
<!DOCTYPE svg PUBLIC "-//W3C//DTD SVG 20010904//EN"
 "http://www.w3.org/TR/2001/REC-SVG-20010904/DTD/svg10.dtd">
<svg version="1.0" xmlns="http://www.w3.org/2000/svg"
 width="2336.000000pt" height="2336.000000pt" viewBox="0 0 2336.000000 2336.000000"
 preserveAspectRatio="xMidYMid meet">
<metadata>
Created by potrace 1.14, written by Peter Selinger 2001-2017
</metadata>
<g transform="translate(0.000000,2336.000000) scale(0.100000,-0.100000)"
fill="#000000" stroke="none">
<path d="M874 14562 c-7 -5 -10 -906 -10 -2814 0 -2530 1 -2807 15 -2810 28
-6 2502 0 2611 7 117 7 185 12 185 15 0 0 25 3 55 4 30 2 69 6 85 10 17 3 53
8 80 11 28 3 61 7 75 10 13 2 42 7 64 11 22 3 43 7 46 9 3 2 26 6 50 10 53 8
60 10 80 18 8 4 27 8 41 11 145 24 438 130 639 230 124 62 130 65 232 134 44
28 83 52 88 52 5 0 10 3 12 8 2 4 41 37 88 73 123 96 328 303 364 367 5 10 15
22 21 27 17 15 85 114 85 123 0 5 9 17 20 27 11 10 20 24 20 32 0 7 5 13 10
13 6 0 10 6 10 14 0 8 6 21 13 28 15 16 113 211 110 220 -1 3 4 12 12 18 8 7
15 18 15 25 0 7 8 30 17 51 9 22 18 42 19 47 1 4 3 10 4 15 1 4 2 10 1 15 0 4
4 7 9 7 5 0 9 3 8 8 -1 4 10 46 25 94 16 48 30 97 32 108 2 11 7 25 10 30 4 6
9 27 11 47 3 20 8 41 11 47 7 11 9 20 16 71 2 17 8 46 12 65 5 19 9 42 10 50
1 8 5 33 8 55 29 173 41 345 41 590 0 183 -9 391 -19 440 -3 11 -7 47 -10 79
-3 32 -7 62 -9 65 -2 3 -7 26 -10 51 -3 25 -8 56 -11 70 -3 14 -8 39 -11 55
-27 153 -117 436 -182 575 -14 30 -26 57 -26 60 -2 13 -84 163 -129 235 -105
169 -232 323 -378 461 -78 73 -232 194 -246 194 -7 0 -13 4 -13 9 0 9 -96 71
-111 71 -5 0 -9 3 -9 8 0 4 -10 12 -23 18 -12 6 -62 32 -112 59 -217 114 -563
236 -770 270 -11 2 -20 4 -20 5 0 1 -9 3 -20 5 -11 2 -31 6 -45 9 -14 2 -43 7
-64 11 -21 3 -48 8 -60 10 -12 3 -39 7 -61 9 -68 8 -139 16 -170 21 -47 7
-200 17 -306 19 -53 2 -100 6 -105 9 -6 3 -16 2 -24 -3 -7 -4 -19 -6 -25 -3
-20 7 -115 9 -115 2 0 -4 -16 -3 -35 1 -19 4 -37 4 -40 0 -3 -5 -15 -6 -28 -4
-12 3 -35 5 -52 4 -16 -1 -34 -1 -40 -1 -76 2 -112 2 -120 1 -5 -1 -14 -1 -20
0 -24 4 -136 2 -141 -3 -3 -3 -16 -2 -28 2 -11 5 -30 5 -40 1 -11 -3 -37 -3
-58 0 -21 4 -38 4 -38 0 0 -4 -16 -4 -35 0 -19 4 -37 4 -40 0 -3 -5 -15 -6
-28 -4 -12 3 -35 5 -52 4 -16 -1 -34 -1 -40 -1 -76 2 -112 2 -120 1 -5 -1 -14
-1 -20 0 -5 1 -37 1 -70 1 -76 -1 -90 -2 -117 -1 -13 0 -32 -1 -43 -3 -11 -2
-29 -1 -40 3 -11 4 -32 4 -47 0 -14 -5 -29 -6 -32 -2 -4 3 -30 4 -59 3 -28 -1
-61 -2 -72 -1 -117 4 -145 4 -145 -1 0 -4 -16 -3 -35 1 -19 4 -37 4 -40 0 -3
-5 -15 -6 -28 -4 -12 3 -35 5 -52 4 -16 -1 -34 -1 -40 -1 -76 2 -112 2 -120 1
-5 -1 -14 -1 -20 0 -5 1 -39 1 -75 1 -36 -1 -74 -1 -85 -1 -22 1 -19 1 -91 -1
-28 -1 -55 1 -60 4 -6 3 -15 3 -20 -1z m2416 -1296 c74 -3 146 -8 160 -11 14
-3 43 -7 65 -10 35 -4 77 -11 110 -19 6 -2 24 -6 40 -10 62 -16 190 -59 203
-69 6 -5 12 -7 12 -3 0 6 191 -92 200 -103 3 -3 25 -20 50 -36 123 -83 278
-274 353 -435 44 -95 97 -252 113 -335 4 -22 9 -47 10 -55 2 -8 6 -33 8 -55 3
-22 8 -51 11 -65 3 -14 7 -74 10 -134 2 -59 5 -109 7 -111 5 -5 0 -213 -6
-265 -3 -25 -8 -70 -10 -100 -3 -30 -10 -80 -16 -110 -6 -30 -13 -66 -15 -80
-2 -14 -17 -70 -33 -125 -126 -431 -402 -709 -832 -836 -52 -15 -112 -30 -134
-33 -21 -4 -41 -8 -45 -10 -3 -2 -35 -7 -71 -11 -36 -3 -78 -8 -95 -11 -42 -7
-1005 -11 -1006 -4 -4 20 -3 3024 1 3030 3 5 26 10 50 12 68 5 707 1 860 -6z"/>
<path d="M6613 14562 c-21 -3 -23 -9 -23 -60 -1 -31 -2 -1296 -3 -2809 -2
-2441 0 -2753 13 -2754 8 -1 999 -2 2203 -3 1452 -1 2187 2 2188 9 0 6 1 292
2 637 1 411 -1 629 -8 631 -5 2 -656 3 -1446 3 l-1436 -1 0 478 c0 263 4 480
9 483 4 3 573 5 1263 5 l1256 0 8 22 c5 12 5 34 1 48 -4 15 -4 32 0 39 5 7 5
23 1 34 -4 12 -5 32 -1 46 4 14 3 34 -1 46 -4 11 -4 27 1 34 5 7 5 23 1 34 -4
12 -5 32 -1 46 4 14 3 35 -1 47 -5 13 -4 25 2 28 5 4 6 11 3 17 -4 6 -6 30 -5
54 3 125 3 142 -3 153 -4 6 -2 11 4 11 6 0 8 5 5 11 -4 6 -7 33 -6 60 1 27 1
71 2 98 1 27 -2 54 -5 60 -4 5 -2 12 3 16 6 3 7 15 2 28 -4 12 -5 33 -1 47 4
14 3 37 -1 51 -4 15 -3 32 1 39 5 7 5 23 0 34 -4 11 -4 32 0 46 3 14 4 34 1
45 -6 21 -8 21 -1271 21 l-1265 0 -1 440 -1 441 111 2 c61 1 118 2 126 1 8 0
80 0 160 0 80 0 152 0 160 0 8 0 80 0 160 0 80 0 152 0 160 0 8 0 80 0 160 0
80 0 152 0 160 0 8 0 80 0 160 0 80 0 152 0 160 0 8 0 80 0 160 0 80 0 150 0
155 0 6 0 179 0 385 0 206 0 386 0 400 1 14 0 50 -1 80 -2 106 -2 117 0 123
21 3 11 1 22 -3 25 -5 3 -5 16 -1 28 5 12 5 34 0 49 -4 15 -4 30 1 33 5 3 6
16 1 28 -4 12 -5 33 -1 47 4 14 3 36 0 50 -4 14 -4 34 0 45 4 11 4 29 0 40 -4
11 -4 29 0 40 4 11 4 32 -1 48 -4 15 -4 27 0 27 4 0 5 21 1 48 -3 26 -3 59 0
72 4 14 3 37 -1 53 -5 17 -4 27 3 27 7 0 6 5 -1 14 -7 8 -8 17 -3 20 5 3 6 26
2 50 -4 25 -4 50 0 56 4 6 4 31 0 55 -4 27 -3 45 3 45 5 0 4 6 -2 14 -7 8 -8
17 -3 20 5 3 6 27 2 53 -3 27 -3 60 0 73 3 14 3 42 -1 63 -3 20 -3 37 0 37 8
0 5 76 -4 90 -3 5 -21 9 -40 8 -19 -1 -38 1 -41 4 -3 3 -21 2 -40 -2 -18 -4
-34 -4 -34 0 0 4 -16 4 -34 0 -19 -4 -38 -5 -41 -2 -6 6 -122 5 -133 -1 -4 -3
-16 -1 -27 3 -11 4 -34 4 -52 -1 -18 -4 -33 -3 -33 1 0 4 -16 4 -34 0 -19 -4
-37 -5 -40 -3 -7 8 -186 9 -186 2 0 -4 -16 -3 -35 1 -19 4 -37 4 -40 0 -3 -5
-15 -6 -28 -4 -12 3 -35 5 -52 4 -16 -1 -34 -1 -40 -1 -76 2 -112 2 -120 1 -5
-1 -14 -1 -20 0 -5 1 -37 1 -70 1 -76 -1 -90 -2 -117 -1 -13 0 -32 -1 -43 -3
-11 -2 -29 -1 -40 3 -11 4 -32 4 -47 0 -14 -5 -29 -6 -32 -2 -4 3 -30 4 -59 3
-28 -1 -61 -2 -72 -1 -117 4 -145 4 -145 -1 0 -4 -16 -3 -35 1 -19 4 -37 4
-40 0 -3 -5 -15 -6 -28 -4 -12 3 -35 5 -52 4 -16 -1 -34 -1 -40 -1 -76 2 -112
2 -120 1 -5 -1 -14 -1 -20 0 -5 1 -37 1 -70 1 -76 -1 -90 -2 -117 -1 -13 0
-32 -1 -43 -3 -11 -2 -29 -1 -40 3 -11 4 -32 4 -47 0 -14 -5 -29 -6 -32 -2 -4
3 -30 4 -59 3 -28 -1 -61 -2 -72 -1 -117 4 -145 4 -145 -1 0 -4 -16 -3 -35 1
-19 4 -37 4 -40 0 -3 -5 -15 -6 -28 -4 -12 3 -35 5 -52 4 -16 -1 -34 -1 -40
-1 -76 2 -112 2 -120 1 -5 -1 -14 -1 -20 0 -24 4 -136 2 -141 -3 -3 -3 -16 -2
-28 2 -11 5 -30 5 -40 1 -11 -3 -37 -3 -58 0 -21 4 -38 4 -38 0 0 -4 -16 -4
-35 0 -19 4 -37 4 -40 0 -3 -5 -15 -6 -28 -4 -12 3 -35 5 -52 4 -16 -1 -34 -1
-40 -1 -76 2 -112 2 -120 1 -5 -1 -14 -1 -20 0 -5 1 -37 1 -70 1 -76 -1 -90
-2 -117 -1 -13 0 -32 -1 -43 -3 -11 -2 -29 -1 -40 3 -11 4 -32 4 -47 0 -14 -5
-29 -6 -32 -2 -4 3 -30 5 -59 3 -58 -2 -52 -2 -143 0 -36 1 -68 -1 -71 -5 -3
-3 -11 -2 -17 2 -6 4 -21 6 -33 4z"/>
<path d="M11443 14562 c-22 -3 -23 -8 -23 -80 -3 -567 0 -5534 3 -5539 6 -9
1493 -10 1502 -2 3 3 6 390 8 859 l2 854 575 2 c316 1 609 5 650 8 136 12 175
16 205 21 17 2 48 6 70 9 67 8 119 17 210 36 84 17 87 18 180 45 50 14 95 27
102 29 7 1 16 5 19 9 4 4 14 7 22 7 8 0 28 6 45 14 18 8 61 27 97 41 82 34
233 114 242 129 4 6 8 7 8 3 0 -4 6 -3 13 3 6 5 49 37 95 71 129 94 311 289
368 394 6 11 21 37 32 58 50 86 60 106 97 197 39 97 90 263 100 328 3 20 8 51
11 67 4 17 8 41 9 55 2 14 4 25 5 25 1 0 3 16 5 35 1 19 6 76 11 125 10 116
10 364 0 485 -4 52 -9 107 -10 123 0 15 -3 27 -6 27 -3 0 -6 15 -7 33 -1 37
-9 78 -29 162 -8 33 -17 69 -19 80 -10 43 -54 175 -75 221 -90 201 -137 277
-261 423 -51 60 -79 87 -180 176 -98 88 -389 250 -519 290 -3 1 -50 16 -105
33 -137 43 -297 80 -425 98 -190 26 -280 34 -468 39 -84 2 -157 7 -162 10 -6
4 -10 2 -10 -4 0 -6 -6 -8 -12 -6 -23 9 -109 11 -114 3 -3 -5 -10 -6 -15 -2
-5 3 -38 5 -72 5 -79 -1 -92 -2 -119 -1 -13 0 -32 -1 -43 -3 -11 -2 -29 -1
-40 3 -11 4 -32 4 -47 0 -14 -5 -29 -6 -32 -2 -4 3 -30 4 -59 3 -28 -1 -61 -2
-72 -1 -117 4 -145 4 -145 -1 0 -4 -16 -3 -35 1 -19 4 -37 4 -40 0 -3 -5 -15
-6 -28 -4 -12 3 -35 5 -52 4 -16 -1 -34 -1 -40 -1 -76 2 -112 2 -120 1 -5 -1
-14 -1 -20 0 -5 1 -37 1 -70 1 -76 -1 -90 -2 -117 -1 -13 0 -32 -1 -43 -3 -11
-2 -29 -1 -40 3 -11 4 -32 4 -47 0 -14 -5 -29 -6 -32 -2 -4 3 -30 4 -59 3 -28
-1 -61 -2 -72 -1 -117 4 -145 4 -145 -1 0 -4 -16 -3 -35 1 -19 4 -37 4 -40 0
-3 -5 -15 -6 -28 -4 -12 3 -35 5 -52 4 -16 -1 -34 -1 -40 -1 -76 2 -112 2
-120 1 -5 -1 -14 -1 -20 0 -5 1 -37 1 -70 1 -68 -1 -86 -2 -117 -1 -13 0 -34
-1 -48 -3 -14 -2 -34 0 -45 3 -11 3 -30 4 -42 2z m2437 -1186 c30 -3 66 -8 80
-11 14 -3 36 -8 50 -10 32 -5 117 -30 150 -43 14 -5 27 -9 30 -9 11 2 128 -78
163 -112 40 -37 123 -151 111 -151 -4 0 1 -9 11 -20 10 -11 15 -20 11 -20 -3
0 0 -12 7 -27 16 -31 27 -79 43 -183 15 -95 6 -422 -12 -452 -3 -4 -7 -17 -9
-28 -17 -88 -94 -229 -157 -286 -30 -27 -124 -94 -132 -94 -3 0 -25 -9 -49
-20 -79 -37 -219 -68 -342 -76 -41 -2 -778 -6 -877 -5 l-28 1 0 774 c0 568 3
775 11 778 19 6 879 1 939 -6z"/>
<path d="M16330 14560 l-45 -5 -1 -652 c-1 -590 1 -653 15 -654 9 0 403 -1
876 -2 l860 -2 0 -2152 c0 -1184 2 -2153 5 -2154 14 -3 1487 -4 1496 -1 8 2
11 598 11 2155 l0 2152 877 0 876 0 0 45 c2 294 0 1263 -2 1266 -4 3 -37 5
-80 4 -10 0 -28 0 -40 0 -13 0 -32 -1 -43 -3 -11 -2 -29 -1 -40 3 -11 4 -32 4
-47 0 -14 -5 -29 -6 -32 -2 -4 3 -30 4 -59 3 -28 -1 -61 -2 -72 -1 -117 4
-145 4 -145 -1 0 -4 -16 -3 -35 1 -19 4 -37 4 -40 0 -3 -5 -15 -6 -28 -4 -12
3 -35 5 -52 4 -16 -1 -34 -1 -40 -1 -76 2 -112 2 -120 1 -5 -1 -14 -1 -20 0
-5 1 -37 1 -70 1 -76 -1 -90 -2 -117 -1 -13 0 -32 -1 -43 -3 -11 -2 -29 -1
-40 3 -11 4 -32 4 -47 0 -14 -5 -29 -6 -32 -2 -4 3 -30 4 -59 3 -28 -1 -61 -2
-72 -1 -117 4 -145 4 -145 -1 0 -4 -16 -3 -35 1 -19 4 -37 4 -40 0 -3 -5 -15
-6 -28 -4 -12 3 -35 5 -52 4 -16 -1 -34 -1 -40 -1 -76 2 -112 2 -120 1 -5 -1
-14 -1 -20 0 -5 1 -39 1 -75 1 -36 -1 -74 -1 -85 -1 -36 2 -40 2 -70 -3 -17
-2 -39 -1 -50 3 -11 4 -34 4 -52 -1 -18 -4 -33 -3 -33 1 0 4 -16 4 -34 0 -19
-4 -38 -5 -41 -2 -6 6 -122 5 -133 -1 -4 -3 -16 -1 -27 3 -11 4 -34 4 -52 -1
-18 -4 -33 -3 -33 1 0 4 -16 4 -34 0 -19 -4 -38 -5 -41 -2 -6 6 -121 5 -133
-1 -4 -3 -16 -1 -27 3 -11 4 -34 4 -52 -1 -18 -4 -33 -3 -33 1 0 4 -16 4 -34
0 -19 -4 -38 -5 -41 -2 -6 6 -122 5 -133 -1 -4 -3 -16 -1 -27 3 -11 4 -34 4
-52 -1 -18 -4 -33 -3 -33 1 0 4 -16 4 -34 0 -19 -4 -37 -5 -41 -2 -6 6 -111 6
-122 -1 -4 -2 -17 -1 -28 3 -11 4 -32 4 -47 -1 -14 -4 -29 -5 -32 -1 -4 3 -30
4 -59 3 -28 -1 -61 -2 -72 -1 -117 4 -145 4 -145 -1 0 -4 -16 -3 -35 1 -19 4
-37 4 -40 0 -3 -5 -15 -6 -28 -4 -12 3 -35 5 -52 4 -16 -1 -34 -1 -40 -1 -76
2 -112 2 -120 1 -5 -1 -14 -1 -20 0 -5 1 -37 1 -70 1 -76 -1 -90 -2 -117 -1
-13 0 -32 -1 -43 -3 -11 -2 -29 -1 -40 3 -11 4 -32 4 -47 0 -14 -5 -29 -6 -32
-2 -7 6 -101 6 -113 -1 -4 -2 -17 -1 -28 3 -11 4 -33 4 -50 0 -17 -4 -39 -4
-50 0 -11 4 -32 4 -47 -1 -14 -4 -29 -5 -32 -1 -7 7 -106 6 -113 -2 -3 -2 -15
-1 -27 2 -11 4 -41 5 -66 2z"/>
<path d="M21440 10637 c-25 -5 -54 -10 -65 -12 -11 -2 -20 -4 -20 -5 0 -1 -7
-3 -15 -5 -8 -1 -42 -13 -75 -26 -33 -13 -63 -22 -67 -21 -5 1 -8 -2 -8 -8 0
-5 -5 -10 -12 -10 -27 0 -212 -133 -201 -144 4 -3 1 -6 -6 -6 -17 0 -72 -61
-132 -146 -39 -55 -107 -188 -114 -223 -2 -11 -7 -26 -10 -31 -3 -5 -8 -18
-10 -27 -2 -10 -8 -40 -14 -66 -6 -27 -9 -52 -6 -57 3 -5 1 -11 -3 -14 -5 -3
-8 -58 -6 -123 3 -114 5 -139 19 -193 4 -14 9 -36 12 -50 3 -14 13 -44 24 -67
10 -24 19 -47 19 -52 0 -14 67 -128 110 -186 168 -228 444 -364 730 -360 113
2 184 11 212 26 10 5 18 8 18 5 0 -10 129 41 195 78 130 72 235 167 317 286
42 61 107 186 113 220 2 8 4 15 5 15 1 0 3 7 5 15 2 8 9 33 15 55 43 166 28
395 -36 551 -22 54 -67 148 -74 154 -3 3 -21 28 -40 55 -127 185 -349 327
-580 370 -57 11 -251 12 -300 2z m270 -161 c65 -11 196 -63 260 -104 49 -32
160 -136 200 -187 78 -101 138 -267 145 -399 2 -40 5 -76 6 -82 1 -5 0 -11 -1
-14 -1 -3 -3 -27 -5 -53 -5 -55 -39 -183 -60 -224 -8 -15 -15 -34 -15 -40 0
-7 -4 -13 -10 -13 -5 0 -10 -5 -10 -11 0 -16 -89 -139 -101 -139 -5 0 -9 -4
-9 -10 0 -13 -82 -89 -97 -90 -7 0 -13 -4 -13 -9 0 -11 -167 -98 -201 -104
-13 -3 -44 -10 -69 -17 -65 -18 -242 -16 -320 4 -74 19 -209 83 -259 124 -62
49 -153 146 -180 193 -50 84 -108 219 -95 219 4 0 1 6 -5 13 -6 8 -9 16 -6 19
3 2 0 20 -5 39 -10 33 -13 200 -5 249 2 14 9 43 15 65 6 22 13 51 16 65 3 14
9 29 15 35 5 5 9 16 9 25 0 9 22 52 49 96 54 87 145 185 213 231 54 37 168 96
168 88 0 -3 8 -1 18 4 61 32 232 45 352 27z"/>
<path d="M21159 10225 c-1 0 -2 -215 -3 -477 l-2 -478 31 -1 c132 -3 249 1
254 9 3 6 6 76 5 156 -1 162 -8 148 71 148 99 0 89 6 146 -99 29 -54 66 -124
82 -155 29 -58 30 -58 76 -59 25 0 94 -1 154 -2 66 -1 107 2 107 8 -1 6 -21
46 -46 90 -25 44 -51 92 -57 108 -6 15 -15 27 -19 27 -4 0 -8 4 -8 10 0 5 -13
32 -30 60 -35 60 -37 76 -10 85 31 10 78 64 107 124 57 118 32 280 -56 358
-39 35 -109 69 -166 80 -14 2 -624 11 -636 8z m564 -249 c17 -12 28 -28 29
-45 0 -14 2 -33 3 -41 3 -26 -28 -69 -57 -81 -28 -12 -247 -20 -249 -9 -1 3
-3 48 -4 101 l-2 97 126 -2 c102 -2 131 -5 154 -20z"/>
</g>
</svg>
